HIERARCHY
ROOT Hips
{
	OFFSET 0.000000 0.000000 0.000000 
	CHANNELS 6 Xposition Yposition Zposition Yrotation Zrotation Xrotation 
	JOINT Lumbar
	{
		OFFSET 0.000000 0.000000 0.000000 
		CHANNELS 3 Zrotation Xrotation Yrotation
		JOINT Neck
		{
			OFFSET 0.000000 0.445665 0.000000 
			CHANNELS 3 Zrotation Xrotation Yrotation
			End Site
			{
				OFFSET 0.000000 0.227535 0.000000 
			}
		}
		JOINT RightShoulder
		{
			OFFSET 0.019635 0.377685 0.194865 
			CHANNELS 3 Zrotation Xrotation Yrotation
			JOINT RightElbow
			{
				OFFSET 0.000000 -0.243375 0.000000 
				CHANNELS 2 Zrotation Yrotation
				JOINT RightWrist
				{
					OFFSET 0.000000 -0.264825 0.000000 
					CHANNELS 2 Zrotation Xrotation
					End Site
					{
						OFFSET 0.006600 -0.176220 0.000990 
					}
				}
			}
		}
		JOINT LeftShoulder
		{
			OFFSET 0.019635 0.377685 -0.194865 
			CHANNELS 3 Zrotation Xrotation Yrotation
			JOINT LeftElbow
			{
				OFFSET 0.000000 -0.243375 0.000000 
				CHANNELS 2 Zrotation Yrotation
				JOINT LeftWrist
				{
					OFFSET 0.000000 -0.264825 0.000000 
					CHANNELS 2 Zrotation Xrotation
					End Site
					{
						OFFSET 0.006600 -0.176220 -0.000990 
					}
				}
			}
		}
	}
	JOINT RightHip
	{
		OFFSET 0.052140 -0.069960 0.075570 
		CHANNELS 3 Zrotation Xrotation Yrotation
		JOINT RightKnee
		{
			OFFSET 0.000000 -0.402270 0.000000 
			CHANNELS 1 Zrotation
			JOINT RightAnkle
			{
				OFFSET 0.000000 -0.404085 0.000000 
				CHANNELS 3 Zrotation Xrotation Yrotation
				End Site
				{
					OFFSET 0.204105 -0.089430 0.008415 
				}
			}
		}
	}
	JOINT LeftHip
	{
		OFFSET 0.052140 -0.069960 -0.075570 
		CHANNELS 3 Zrotation Xrotation Yrotation
		JOINT LeftKnee
		{
			OFFSET 0.000000 -0.402270 0.000000 
			CHANNELS 1 Zrotation
			JOINT LeftAnkle
			{
				OFFSET 0.000000 -0.404085 0.000000 
				CHANNELS 3 Zrotation Xrotation Yrotation
				End Site
				{
					OFFSET 0.204105 -0.089430 -0.008415 
				}
			}
		}
	}
}
MOTION
Frames: 22
Frame Time: 0.02
0.00199 -0.00061 -0.0001 171.60942 -34.04266 -2.40086 46.45531 3.62094 -5.13838 -5.34176 -8.64965 -0.13029 -25.0538 -11.68071 3.00337 42.21444 90.09902 6.66565 0.54529 -27.53236 12.30935 -3.59636 38.49314 -95.43718 12.60223 -0.35003 35.62422 -1.87442 -9.25301 -21.36558 -7.70251 -3.0674 -3.77054 38.00429 9.99103 6.64766 -27.25822 -8.56426 3.56686 4.06241
0.00159 -0.00062 0.00014 171.60966 -33.83365 -2.40188 46.23441 3.61681 -5.1867 -5.37225 -8.63225 -0.17599 -25.1123 -11.65673 2.81049 42.07015 90.15412 6.67802 0.54064 -27.60634 12.34923 -3.56579 38.49759 -95.37262 12.62203 -0.35361 35.33078 -1.89141 -9.32032 -21.28845 -7.70296 -3.06227 -3.76827 37.71298 10.00322 6.79196 -27.20474 -8.55005 3.55535 4.05668
0.00118 -0.00063 0.00037 171.60979 -33.62556 -2.40291 46.01446 3.61271 -5.23484 -5.40269 -8.61486 -0.22155 -25.17065 -11.6328 2.6181 41.92607 90.20897 6.69035 0.536 -27.68004 12.38905 -3.53549 38.50235 -95.30831 12.64179 -0.35716 35.03856 -1.90843 -9.38765 -21.21162 -7.7034 -3.05712 -3.76599 37.42284 10.01534 6.9358 -27.15148 -8.5359 3.54388 4.05098
0.00078 -0.00064 0.00061 171.61001 -33.41726 -2.40393 45.7943 3.6086 -5.283 -5.43308 -8.59751 -0.26711 -25.22897 -11.60888 2.4258 41.78218 90.26388 6.70267 0.53136 -27.75377 12.42881 -3.50503 38.5068 -95.24397 12.66154 -0.36072 34.7461 -1.92538 -9.45479 -21.13474 -7.70386 -3.052 -3.76373 37.13249 10.02748 7.07966 -27.09818 -8.52173 3.53241 4.04527
0.00037 -0.00066 0.00085 171.61037 -33.20788 -2.40493 45.57305 3.60445 -5.33135 -5.46354 -8.58018 -0.31281 -25.28741 -11.58493 2.23302 41.63817 90.31909 6.71503 0.52672 -27.82784 12.46863 -3.47427 38.51091 -95.17933 12.68131 -0.36432 34.45224 -1.94228 -9.52184 -21.05752 -7.70433 -3.04691 -3.76148 36.8408 10.03971 7.22397 -27.04465 -8.50753 3.52089 4.03953
-3e-05 -0.00067 0.00109 171.61001 -33.00247 -2.40602 45.35582 3.60047 -5.37904 -5.49395 -8.56265 -0.35809 -25.34558 -11.56104 2.04147 41.49397 90.37318 6.72732 0.52207 -27.90077 12.50846 -3.44493 38.5171 -95.11572 12.70104 -0.36774 34.16344 -1.95954 -9.58975 -20.9815 -7.7047 -3.04165 -3.75915 36.55391 10.05159 7.36681 -26.99196 -8.49348 3.50953 4.03389
-0.00044 -0.00068 0.00132 171.61111 -32.78946 -2.40693 45.13086 3.59614 -5.428 -5.52436 -8.54554 -0.40417 -25.40424 -11.53706 1.84768 41.35031 90.42941 6.73972 0.51742 -27.97583 12.54817 -3.4127 38.51886 -95.05017 12.72085 -0.37153 33.86496 -1.97606 -9.65585 -20.90319 -7.70528 -3.03674 -3.75699 36.25786 10.06416 7.51248 -26.93765 -8.47912 3.49786 4.02807
-0.00084 -0.0007 0.00156 171.61088 -32.58318 -2.40801 44.9128 3.59214 -5.47582 -5.55487 -8.52804 -0.44951 -25.46242 -11.51314 1.65593 41.20616 90.48376 6.75203 0.51281 -28.04906 12.58811 -3.38323 38.52511 -94.98628 12.74053 -0.37497 33.57506 -1.99325 -9.72363 -20.82692 -7.70567 -3.03151 -3.75467 35.96992 10.07608 7.65548 -26.88478 -8.46505 3.48648 4.02242
-0.00125 -0.00071 0.0018 171.60892 -32.38619 -2.40929 44.70406 3.58853 -5.52212 -5.58512 -8.51007 -0.49395 -25.52015 -11.48936 1.46668 41.06126 90.53548 6.76417 0.50812 -28.11955 12.62787 -3.35679 38.5353 -94.92493 12.76029 -0.37801 33.29698 -2.01135 -9.79346 -20.75343 -7.70579 -3.02587 -3.75214 35.69315 10.08727 7.7955 -26.83387 -8.45133 3.47544 4.01695
-0.00165 -0.00072 0.00204 171.61657 -32.13897 -2.4094 44.44435 3.58265 -5.57677 -5.61572 -8.49479 -0.54358 -25.58087 -11.46498 1.26306 40.9202 90.60133 6.77712 0.5035 -28.20431 12.66729 -3.31191 38.51817 -94.8505 12.78032 -0.38345 32.95488 -2.02448 -9.8515 -20.66479 -7.70736 -3.02253 -3.75079 35.3559 10.10284 7.95353 -26.7723 -8.43556 3.46239 4.01036
-0.00205 -0.00073 0.00228 171.60419 -31.99563 -2.41199 44.29046 3.58157 -5.61408 -5.64632 -8.47389 -0.58225 -25.63503 -11.44174 1.08977 40.77139 90.63802 6.78846 0.49897 -28.25991 12.70828 -3.30656 38.56163 -94.80267 12.79933 -0.38377 32.74529 -2.04793 -9.93437 -20.60757 -7.70593 -3.01438 -3.74698 35.14381 10.10908 8.07301 -26.73282 -8.42416 3.45363 4.00617
-0.00245 -0.00074 0.00252 171.53418 -32.15775 -2.42151 44.44463 3.59365 -5.60098 -5.67121 -8.43725 -0.59057 -25.67302 -11.42244 0.99943 40.59794 90.59425 6.79577 0.49383 -28.22728 12.74721 -3.40588 38.74929 -94.83655 12.81913 -0.37044 32.92469 -2.10129 -10.08658 -20.6421 -7.69583 -2.99247 -3.73619 35.29899 10.09019 8.09054 -26.75803 -8.42438 3.45625 4.00838
-0.00284 -0.00074 0.00277 171.44446 -32.42067 -2.4335 44.70221 3.6106 -5.57091 -5.69748 -8.3952 -0.58793 -25.70398 -11.40394 0.93901 40.41724 90.52521 6.80219 0.4898 -28.16708 12.78917 -3.54573 39.00221 -94.89531 12.83717 -0.35187 33.23284 -2.16475 -10.26346 -20.70725 -7.68279 -2.96584 -3.72299 35.57573 10.06189 8.06891 -26.80473 -8.42903 3.46323 4.01301
-0.00324 -0.00074 0.00302 171.3656 -32.6238 -2.44431 44.90036 3.62526 -5.55054 -5.7264 -8.35564 -0.59048 -25.73709 -11.38481 0.86582 40.24216 90.46306 6.80776 0.48473 -28.12464 12.83361 -3.66936 39.23923 -94.93731 12.85381 -0.33549 33.46506 -2.22252 -10.42836 -20.75466 -7.67139 -2.94174 -3.71105 35.78089 10.03757 8.0624 -26.83886 -8.4319 3.46848 4.01664
-0.00363 -0.00075 0.00328 171.279 -32.88504 -2.45542 45.14944 3.64006 -5.52205 -5.74009 -8.31529 -0.59213 -25.77504 -11.36766 0.79158 40.05759 90.40419 6.81535 0.47839 -28.05932 12.86071 -3.7833 39.41691 -95.0033 12.88011 -0.32005 33.76957 -2.28484 -10.59675 -20.81792 -7.65873 -2.91597 -3.69839 36.05399 10.01435 8.06612 -26.88463 -8.43388 3.47272 4.01989
-0.00402 -0.00075 0.00351 171.20341 -33.05052 -2.46643 45.31919 3.65594 -5.50605 -5.78756 -8.27611 -0.59306 -25.80069 -11.3455 0.72364 39.89066 90.35262 6.82259 0.47936 -28.03608 12.92594 -3.92766 39.73541 -95.02406 12.88541 -0.30126 33.95589 -2.34022 -10.76345 -20.85589 -7.64798 -2.89257 -3.68666 36.21601 9.98676 8.04049 -26.91159 -8.43866 3.48003 4.02447
-0.00439 -0.00074 0.00369 171.16711 -32.91442 -2.47697 45.22499 3.67174 -5.53216 -5.91359 -8.23467 -0.59469 -25.79881 -11.31921 0.69315 39.77764 90.14244 6.79166 0.45953 -28.12789 13.08482 -4.14057 40.41202 -94.92335 12.83697 -0.27587 33.76774 -2.37283 -10.92169 -20.81221 -7.64349 -2.8769 -3.67809 36.02695 9.9481 7.9328 -26.87826 -8.45087 3.49524 4.0324
-0.00476 -0.00072 0.00385 171.14191 -32.68068 -2.4872 45.05103 3.68881 -5.57076 -6.07647 -8.19593 -0.59596 -25.78398 -11.28654 0.66424 39.68203 89.96607 6.76556 0.45253 -28.26463 13.28416 -4.38369 41.23118 -94.77433 12.76663 -0.24702 33.45919 -2.3984 -11.07699 -20.74278 -7.64098 -2.86375 -3.67054 35.72452 9.90554 7.7989 -26.82582 -8.4656 3.51329 4.04154
-0.00513 -0.00072 0.00402 171.10886 -32.4999 -2.49734 44.9264 3.70647 -5.60145 -6.23162 -8.16033 -0.5974 -25.77192 -11.24955 0.61483 39.57614 89.9069 6.76408 0.46902 -28.38578 13.47189 -4.61664 41.99428 -94.64132 12.70398 -0.21894 33.21674 -2.42787 -11.23209 -20.68798 -7.6374 -2.84944 -3.66251 35.48361 9.86568 7.68395 -26.78419 -8.47868 3.52971 4.04994
-0.00549 -0.0007 0.00419 171.08657 -32.2867 -2.50869 44.75012 3.7193 -5.64114 -6.34785 -8.10585 -0.59846 -25.77254 -11.24076 0.64418 39.47977 89.32393 6.65681 0.37035 -28.48497 13.6304 -4.83612 42.72138 -94.53477 12.65131 -0.19419 32.93108 -2.45446 -11.39432 -20.62197 -7.63445 -2.83508 -3.65446 35.20505 9.8218 7.53792 -26.73442 -8.49407 3.54774 4.05922
-0.00587 -0.0007 0.00436 171.04527 -32.11613 -2.51719 44.66116 3.74253 -5.66508 -6.55503 -8.09175 -0.60036 -25.74406 -11.17463 0.51677 39.36806 89.79422 6.76171 0.50379 -28.64169 13.8602 -5.09013 43.55828 -94.36068 12.57205 -0.16158 32.70468 -2.48559 -11.54095 -20.57271 -7.63067 -2.82141 -3.6467 34.97603 9.78519 7.45092 -26.6967 -8.50516 3.563 4.06692
-0.00632 -0.00072 0.00451 170.94489 -32.08993 -2.51984 44.83201 3.79328 -5.64397 -6.99471 -8.18564 -0.60488 -25.63627 -10.9261 -0.10787 39.20794 93.56868 7.53308 1.3695 -28.94012 14.26988 -5.43369 44.64798 -94.01753 12.43048 -0.10975 32.67498 -2.52783 -11.64245 -20.57646 -7.62438 -2.80976 -3.63971 34.91425 9.7723 7.53355 -26.69759 -8.50391 3.57007 4.07005
